<?xml version="1.0" encoding="UTF-8" standalone="no"?><!-- Generator: Gravit.io --><svg xmlns="http://www.w3.org/2000/svg" xmlns:xlink="http://www.w3.org/1999/xlink" style="isolation:isolate" viewBox="664.63 346.295 100.5 64.544" width="100.5pt" height="64.544pt"><defs><clipPath id="_clipPath_EQ1fyV0ncsc5ZlhLq9SVFw0F5p93iCD7"><rect x="664.63" y="346.295" width="100.5" height="64.544"/></clipPath></defs><g clip-path="url(#_clipPath_EQ1fyV0ncsc5ZlhLq9SVFw0F5p93iCD7)"><path d=" M 716.161 403.001 C 716.199 398.707 719.184 395.248 722.821 395.281 C 726.458 395.314 729.379 398.826 729.341 403.12 C 729.302 407.413 726.318 410.872 722.681 410.84 C 719.043 410.807 716.122 407.294 716.161 403.001 Z " fill="rgb(0,0,0)"/><path d=" M 690.27 403.001 C 690.309 398.707 693.293 395.248 696.93 395.281 C 700.567 395.314 703.489 398.826 703.45 403.12 C 703.411 407.413 700.427 410.872 696.79 410.84 C 693.153 410.807 690.231 407.294 690.27 403.001 Z " fill="rgb(0,0,0)"/><path d=" M 711.014 347.586 C 705.94 346.137 700.301 347.015 698.646 347.586 C 697.172 347.676 693.127 349.733 692.09 350.657 C 689.512 352.418 687.743 354.678 686.215 359.113 C 678.07 360.87 674.06 363.414 673.854 371.211 C 673.627 379.855 674.032 388.914 683.411 390.106 C 685.862 396.734 690.411 402.873 698.646 403.053 C 704.288 403.176 708.98 401.759 712.57 398.335 C 715.391 400.394 718.725 402.967 722.631 403.053 C 730.064 403.215 736.286 398.91 738.7 392.981 L 739.039 392.988 C 748.88 393.203 757.163 386.205 757.394 377.409 C 757.591 369.916 751.733 363.706 743.922 361.839 C 741.559 355.556 735.222 350.828 727.395 350.657 C 724.464 350.593 721.832 351.345 719.337 352.4 C 717.699 350.833 716.817 349.545 711.014 347.586 Z  M 737.743 364.941 L 738.249 367.283 L 740.836 367.54 C 746.27 368.146 750.31 372.345 750.178 377.251 C 750.039 382.508 736.799 360.599 737.743 364.941 Z " fill="rgb(255,255,255)" vector-effect="non-scaling-stroke" stroke-width="1" stroke="rgb(0,0,0)" stroke-linejoin="miter" stroke-linecap="butt" stroke-miterlimit="4"/><g><ellipse vector-effect="non-scaling-stroke" cx="743.5550046540557" cy="375.9334947396538" rx="14.792174035710786" ry="17.88039673683585" fill="rgb(0,0,0)"/><path d=" M 722.185 374.202 C 723.613 370.438 726.787 368.145 729.27 369.084 C 731.753 370.024 732.61 373.842 731.182 377.606 C 729.755 381.37 726.58 383.663 724.097 382.724 C 721.615 381.784 720.758 377.966 722.185 374.202 Z " fill="rgb(0,0,0)"/><path d=" M 755.445 377.573 C 754.07 373.789 754.98 369.983 757.475 369.079 C 759.971 368.174 763.114 370.511 764.489 374.294 C 765.864 378.078 764.954 381.884 762.458 382.788 C 759.962 383.693 756.82 381.356 755.445 377.573 Z " fill="rgb(0,0,0)"/><path d=" M 739.612 356.828 C 735.087 356.828 731.434 359.067 730.829 361.915 C 727.614 362.478 725.182 364.323 725.182 366.591 C 725.182 369.106 728.169 371.127 731.905 371.414 C 732.947 373.326 735.624 374.708 738.895 374.708 C 741.137 374.708 742.974 373.962 744.363 372.944 C 745.504 373.524 746.844 373.944 748.395 373.944 C 751.348 373.944 753.773 372.653 754.669 370.914 L 754.804 370.914 C 758.713 370.914 761.928 368.826 761.928 366.268 C 761.928 364.088 759.537 362.32 756.417 361.827 C 755.413 360.015 752.848 358.681 749.739 358.681 C 748.575 358.681 747.538 358.916 746.558 359.239 C 744.911 357.843 742.509 356.828 739.612 356.828 Z  M 732.756 369.65" fill="rgb(255,255,255)" vector-effect="non-scaling-stroke" stroke-width="1" stroke="rgb(0,0,0)" stroke-linejoin="miter" stroke-linecap="butt" stroke-miterlimit="4"/></g><path d=" M 665.188 375.08 C 664.744 377.907 666.877 380.623 669.989 381.554 C 670.3 383.671 672.115 385.549 674.64 385.989 C 677.439 386.478 679.983 385.005 680.67 382.728 C 682.9 382.449 684.702 381.045 685.024 379.003 C 685.244 377.603 684.594 376.311 683.597 375.245 C 684.355 374.645 684.954 373.89 685.107 372.921 C 685.397 371.077 684.198 369.312 682.35 368.414 L 682.363 368.33 C 682.747 365.889 680.739 363.475 677.89 362.978 C 675.464 362.555 673.26 363.704 672.405 365.557 C 670.289 365.832 668.552 367.174 668.246 369.116 C 668.132 369.843 668.292 370.536 668.555 371.211 C 666.839 371.968 665.473 373.271 665.188 375.08 Z  M 678.789 381.853" fill="rgb(255,255,255)" vector-effect="non-scaling-stroke" stroke-width="1" stroke="rgb(0,0,0)" stroke-linejoin="miter" stroke-linecap="butt" stroke-miterlimit="4"/></g></svg>